<?xml version="1.0" standalone="no"?><!DOCTYPE svg PUBLIC "-//W3C//DTD SVG 1.1//EN" "http://www.w3.org/Graphics/SVG/1.1/DTD/svg11.dtd"><svg t="1733710687779" class="icon" viewBox="0 0 1173 1024" version="1.1" xmlns="http://www.w3.org/2000/svg" p-id="1631" xmlns:xlink="http://www.w3.org/1999/xlink" width="229.1015625" height="200"><path d="M950.560914 351.305143C944.160914 156.233143 784.124343 0.036571 587.479771 0.036571c-196.644571 0-356.681143 156.16-363.081142 351.268572a228.242286 228.242286 0 0 0 7.643428 456.411428h710.802286a228.278857 228.278857 0 0 0 7.68-456.411428z" fill="#3E8BF8" p-id="1632"></path><path d="M758.268343 458.057143L615.200914 347.062857a49.078857 49.078857 0 0 0-62.171428-0.073143l-136.265143 111.177143a49.078857 49.078857 0 1 0 62.025143 76.068572l59.501714-48.530286v462.665143a49.152 49.152 0 0 0 98.230857 0V491.52l59.392 42.422857a49.005714 49.005714 0 0 0 69.046857-6.802286 48.896 48.896 0 0 0-6.692571-69.083428z" fill="#80B7F9" p-id="1633"></path><path d="M636.5952 807.716571V491.52l59.355429 42.422857a49.005714 49.005714 0 0 0 69.083428-6.802286c17.188571-20.955429 14.116571-51.931429-6.838857-69.12l-143.067429-111.067428a49.078857 49.078857 0 0 0-62.171428-0.036572l-136.192 111.177143a49.078857 49.078857 0 1 0 62.025143 76.141715l59.501714-48.566858v322.048h98.304z" fill="#FFFFFF" p-id="1634"></path></svg>